<svg width="200" height="50" viewBox="0 0 200 50" fill="none" xmlns="http://www.w3.org/2000/svg">
<path d="M97.0498 16.9826L95.5908 10.9609H92.8872L91.4282 16.9826H92.3289L93.5734 11.7782H94.9038L96.1484 16.9826H97.0498Z" fill="white"/>
<path d="M103.151 10.9609L100.233 15.4771H100.147V10.9609H99.2462V16.9826H100.233L103.151 12.4663H103.237V16.9826H104.138V10.9609H103.151Z" fill="white"/>
<path d="M108.73 11.7782H109.974L111.004 16.1653H107.7L108.73 11.7782ZM107.056 16.9826H111.648V18.0148H112.549V16.1653H111.905L110.661 10.9609H108.043L106.798 16.1653H106.155V18.0148H107.056V16.9826Z" fill="white"/>
<path d="M118.987 16.1653H115.468V14.3588H118.258V13.5417H115.468V11.7782H118.987V10.9609H114.568V16.9826H118.987V16.1653Z" fill="white"/>
<path d="M126.248 13.1545C126.248 12.8534 126.188 12.5696 126.077 12.3029C125.957 12.0362 125.793 11.804 125.579 11.6061C125.364 11.4083 125.116 11.2448 124.824 11.133C124.524 11.0212 124.197 10.9609 123.845 10.9609H121.228V16.9826H122.128V15.3481H123.845C124.197 15.3481 124.524 15.2879 124.824 15.176C125.116 15.0642 125.364 14.9008 125.579 14.703C125.793 14.5051 125.957 14.2728 126.077 14.0062C126.188 13.7395 126.248 13.4556 126.248 13.1545ZM125.348 13.1545C125.348 13.5675 125.218 13.9029 124.953 14.1523C124.687 14.4019 124.318 14.5309 123.845 14.5309H122.128V11.7782H123.845C124.318 11.7782 124.687 11.9072 124.953 12.1567C125.218 12.4061 125.348 12.7416 125.348 13.1545Z" fill="white"/>
<path d="M130.893 16.1653H129.519V13.7566H130.893C131.099 13.7566 131.287 13.7825 131.459 13.8427C131.63 13.9029 131.776 13.9889 131.905 14.1008C132.034 14.2126 132.129 14.3331 132.206 14.4792C132.275 14.6255 132.308 14.7889 132.308 14.961C132.308 15.133 132.275 15.2879 132.206 15.4341C132.129 15.5804 132.034 15.7094 131.905 15.8213C131.776 15.9331 131.63 16.0105 131.459 16.0707C131.287 16.1309 131.099 16.1653 130.893 16.1653ZM133.21 14.961C133.21 14.6771 133.159 14.4191 133.047 14.1696C132.935 13.9287 132.781 13.7136 132.583 13.533C132.386 13.3524 132.137 13.2061 131.853 13.0943C131.57 12.9911 131.245 12.9395 130.893 12.9395H129.519V10.9609H128.618V16.9826H130.893C131.245 16.9826 131.57 16.9309 131.853 16.8191C132.137 16.7158 132.386 16.5696 132.583 16.389C132.781 16.2083 132.935 15.9932 133.047 15.7438C133.159 15.5029 133.21 15.2448 133.21 14.961ZM134.927 16.9826V10.9609H134.025V16.9826H134.927Z" fill="white"/>
<path d="M91.8555 26.8126H96.3185V27.8449H97.2199V25.9954H96.533V20.791H95.6316V25.9954H92.7569V20.791H91.8555V26.8126Z" fill="white"/>
<path d="M103.236 20.791L100.317 25.3072H100.232V20.791H99.3304V26.8126H100.317L103.236 22.2964H103.321V26.8126H104.223V20.791H103.236Z" fill="white"/>
<path d="M109.617 21.8686V25.7397C109.265 25.7311 108.948 25.6708 108.673 25.5676C108.39 25.473 108.158 25.3354 107.97 25.1633C107.78 24.9913 107.634 24.7848 107.54 24.5526C107.437 24.3203 107.385 24.0708 107.385 23.8042C107.385 23.5374 107.437 23.288 107.54 23.0557C107.634 22.8235 107.78 22.6256 107.97 22.4536C108.158 22.2815 108.39 22.1439 108.673 22.0407C108.948 21.9374 109.265 21.8773 109.617 21.8686ZM110.519 25.7397V21.8686C110.87 21.8773 111.188 21.9374 111.471 22.0407C111.746 22.1439 111.978 22.2815 112.166 22.4536C112.355 22.6256 112.501 22.8235 112.604 23.0557C112.698 23.288 112.75 23.5374 112.75 23.8042C112.75 24.0708 112.698 24.3203 112.604 24.5526C112.501 24.7848 112.355 24.9913 112.166 25.1633C111.978 25.3354 111.746 25.473 111.471 25.5676C111.188 25.6708 110.87 25.7311 110.519 25.7397ZM110.519 27.159V26.5568C110.99 26.5483 111.419 26.4622 111.806 26.3074C112.192 26.1611 112.518 25.9547 112.793 25.7052C113.068 25.4558 113.282 25.1719 113.428 24.845C113.574 24.5181 113.651 24.174 113.651 23.8042C113.651 23.4343 113.574 23.0902 113.428 22.7633C113.282 22.4364 113.068 22.1439 112.793 21.8944C112.518 21.645 112.192 21.4471 111.806 21.2923C111.419 21.146 110.99 21.06 110.519 21.0514V20.4492H109.617V21.0514C109.145 21.06 108.716 21.146 108.33 21.2923C107.944 21.4471 107.617 21.645 107.343 21.8944C107.068 22.1439 106.854 22.4364 106.708 22.7633C106.562 23.0902 106.485 23.4343 106.485 23.8042C106.485 24.174 106.562 24.5181 106.708 24.845C106.854 25.1719 107.068 25.4558 107.343 25.7052C107.617 25.9547 107.944 26.1611 108.33 26.3074C108.716 26.4622 109.145 26.5483 109.617 26.5568V27.159H110.519Z" fill="white"/>
<path d="M120.957 22.9846C120.957 22.6836 120.896 22.3997 120.785 22.1329C120.665 21.8663 120.502 21.6341 120.288 21.4362C120.073 21.2384 119.824 21.0749 119.532 20.9631C119.232 20.8513 118.905 20.791 118.553 20.791H115.936V26.8126H116.837V25.1782H118.553C118.905 25.1782 119.232 25.118 119.532 25.0062C119.824 24.8943 120.073 24.7309 120.288 24.533C120.502 24.3352 120.665 24.1029 120.785 23.8362C120.896 23.5696 120.957 23.2857 120.957 22.9846ZM120.056 22.9846C120.056 23.3975 119.927 23.733 119.661 23.9825C119.395 24.2319 119.026 24.361 118.553 24.361H116.837V21.6082H118.553C119.026 21.6082 119.395 21.7372 119.661 21.9868C119.927 22.2362 120.056 22.5717 120.056 22.9846Z" fill="white"/>
<path d="M129.448 23.8041C129.448 23.3481 129.362 22.9267 129.191 22.5309C129.019 22.1352 128.787 21.7911 128.495 21.49C128.204 21.1976 127.86 20.9653 127.474 20.7932C127.088 20.6212 126.667 20.5352 126.23 20.5352C125.792 20.5352 125.371 20.6212 124.985 20.7932C124.599 20.9653 124.255 21.1976 123.964 21.49C123.672 21.7911 123.44 22.1352 123.268 22.5309C123.097 22.9267 123.011 23.3481 123.011 23.8041C123.011 24.2599 123.097 24.6815 123.268 25.0772C123.44 25.4729 123.672 25.8169 123.964 26.1095C124.255 26.4106 124.599 26.6428 124.985 26.8148C125.371 26.9869 125.792 27.0729 126.23 27.0729C126.667 27.0729 127.088 26.9869 127.474 26.8148C127.86 26.6428 128.204 26.4106 128.495 26.1095C128.787 25.8169 129.019 25.4729 129.191 25.0772C129.362 24.6815 129.448 24.2599 129.448 23.8041ZM123.912 23.8041C123.912 23.46 123.972 23.1416 124.101 22.8406C124.229 22.5395 124.393 22.2814 124.607 22.0578C124.822 21.8427 125.062 21.6707 125.345 21.5416C125.629 21.4126 125.92 21.3524 126.23 21.3524C126.539 21.3524 126.83 21.4126 127.114 21.5416C127.397 21.6707 127.637 21.8427 127.852 22.0578C128.066 22.2814 128.23 22.5395 128.358 22.8406C128.487 23.1416 128.547 23.46 128.547 23.8041C128.547 24.1481 128.487 24.4664 128.358 24.7675C128.23 25.0686 128.066 25.3266 127.852 25.5417C127.637 25.7654 127.397 25.9374 127.114 26.0665C126.83 26.1955 126.539 26.2557 126.23 26.2557C125.92 26.2557 125.629 26.1955 125.345 26.0665C125.062 25.9374 124.822 25.7654 124.607 25.5417C124.393 25.3266 124.229 25.0686 124.101 24.7675C123.972 24.4664 123.912 24.1481 123.912 23.8041Z" fill="white"/>
<path d="M132.668 21.6082H134.342C134.642 21.6082 134.882 21.6857 135.045 21.8319C135.209 21.9781 135.286 22.1674 135.286 22.3825C135.286 22.6233 135.209 22.8212 135.045 22.9674C134.882 23.1223 134.642 23.1997 134.342 23.1997H132.668V21.6082ZM134.771 25.9954H132.668V24.0168H134.771C135.157 24.0168 135.458 24.1115 135.664 24.3007C135.869 24.4986 135.973 24.7309 135.973 25.0062C135.973 25.2901 135.869 25.5223 135.664 25.7115C135.458 25.9007 135.157 25.9954 134.771 25.9954ZM134.342 20.791H131.767V26.8126H134.771C135.089 26.8126 135.38 26.761 135.646 26.6663C135.903 26.5717 136.127 26.4427 136.307 26.2793C136.488 26.1158 136.634 25.9266 136.728 25.7029C136.822 25.4879 136.873 25.2556 136.873 25.0062C136.873 24.6621 136.805 24.3868 136.659 24.1889C136.513 23.9911 136.358 23.8449 136.187 23.7416C135.989 23.6211 135.757 23.5438 135.5 23.5008V23.4577C135.629 23.4147 135.741 23.3373 135.843 23.2427C135.929 23.1653 136.007 23.0534 136.084 22.9158C136.153 22.7782 136.187 22.5975 136.187 22.3825C136.187 22.1674 136.144 21.961 136.058 21.7631C135.964 21.5738 135.843 21.4018 135.681 21.2555C135.518 21.1093 135.328 20.9975 135.105 20.9115C134.874 20.834 134.625 20.791 134.342 20.791Z" fill="white"/>
<path d="M145.291 23.8041C145.291 23.3481 145.205 22.9267 145.034 22.5309C144.862 22.1352 144.63 21.7911 144.338 21.49C144.046 21.1976 143.703 20.9653 143.317 20.7932C142.93 20.6212 142.51 20.5352 142.072 20.5352C141.635 20.5352 141.214 20.6212 140.828 20.7932C140.441 20.9653 140.098 21.1976 139.806 21.49C139.515 21.7911 139.283 22.1352 139.111 22.5309C138.94 22.9267 138.854 23.3481 138.854 23.8041C138.854 24.2599 138.94 24.6815 139.111 25.0772C139.283 25.4729 139.515 25.8169 139.806 26.1095C140.098 26.4106 140.441 26.6428 140.828 26.8148C141.214 26.9869 141.635 27.0729 142.072 27.0729C142.51 27.0729 142.93 26.9869 143.317 26.8148C143.703 26.6428 144.046 26.4106 144.338 26.1095C144.63 25.8169 144.862 25.4729 145.034 25.0772C145.205 24.6815 145.291 24.2599 145.291 23.8041ZM139.754 23.8041C139.754 23.46 139.815 23.1416 139.944 22.8406C140.072 22.5395 140.235 22.2814 140.45 22.0578C140.665 21.8427 140.905 21.6707 141.188 21.5416C141.471 21.4126 141.763 21.3524 142.072 21.3524C142.381 21.3524 142.673 21.4126 142.956 21.5416C143.24 21.6707 143.48 21.8427 143.695 22.0578C143.909 22.2814 144.072 22.5395 144.201 22.8406C144.329 23.1416 144.389 23.46 144.389 23.8041C144.389 24.1481 144.329 24.4664 144.201 24.7675C144.072 25.0686 143.909 25.3266 143.695 25.5417C143.48 25.7654 143.24 25.9374 142.956 26.0665C142.673 26.1955 142.381 26.2557 142.072 26.2557C141.763 26.2557 141.471 26.1955 141.188 26.0665C140.905 25.9374 140.665 25.7654 140.45 25.5417C140.235 25.3266 140.072 25.0686 139.944 24.7675C139.815 24.4664 139.754 24.1481 139.754 23.8041Z" fill="white"/>
<path d="M150.06 20.1048C150.241 20.1048 150.413 20.0703 150.567 20.0101C150.713 19.9499 150.85 19.8639 150.962 19.7521C151.074 19.6402 151.159 19.5112 151.219 19.3564C151.279 19.2101 151.305 19.038 151.305 18.8574H150.619C150.619 19.0295 150.567 19.1671 150.473 19.2617C150.369 19.3649 150.232 19.4165 150.06 19.4165C149.889 19.4165 149.752 19.3649 149.657 19.2617C149.554 19.1671 149.503 19.0295 149.503 18.8574H148.816C148.816 19.038 148.85 19.2101 148.91 19.3564C148.97 19.5112 149.056 19.6402 149.168 19.7521C149.279 19.8639 149.408 19.9499 149.562 20.0101C149.708 20.0703 149.88 20.1048 150.06 20.1048ZM151.52 20.7929L148.601 25.3091H148.516V20.7929H147.615V26.8145H148.601L151.52 22.2983H151.605V26.8145H152.507V20.7929H151.52Z" fill="white"/>
<path d="M91.344 31.4402H93.3606V36.6446H94.262V31.4402H96.2794V30.623H91.344V31.4402Z" fill="white"/>
<path d="M103.41 32.8166C103.41 32.5155 103.35 32.2316 103.239 31.965C103.118 31.6983 102.956 31.466 102.741 31.2682C102.527 31.0703 102.278 30.9069 101.986 30.795C101.685 30.6832 101.359 30.623 101.007 30.623H98.3896V36.6446H99.2911V35.0102H101.007C101.359 35.0102 101.685 34.9499 101.986 34.8381C102.278 34.7263 102.527 34.5628 102.741 34.365C102.956 34.1671 103.118 33.9349 103.239 33.6682C103.35 33.4015 103.41 33.1176 103.41 32.8166ZM102.51 32.8166C102.51 33.2295 102.381 33.565 102.114 33.8144C101.849 34.0639 101.48 34.193 101.007 34.193H99.2911V31.4402H101.007C101.48 31.4402 101.849 31.5693 102.114 31.8187C102.381 32.0682 102.51 32.4037 102.51 32.8166Z" fill="white"/>
<path d="M106.385 34.408L107.098 31.4402H108.342L109.046 34.408H106.385ZM106.368 30.623L104.909 36.6446H105.853L106.188 35.2253H109.243L109.587 36.6446H110.531L109.072 30.623H106.368Z" fill="white"/>
<path d="M112.732 30.623V36.6446H113.633V34.0639H116.681V36.6446H117.581V30.623H116.681V33.2467H113.633V30.623H112.732Z" fill="white"/>
<path d="M123.019 36.9029C123.414 36.9029 123.774 36.8428 124.1 36.7309C124.427 36.6105 124.71 36.4556 124.958 36.2578C125.207 36.0685 125.413 35.8534 125.576 35.6126C125.74 35.3717 125.86 35.1308 125.937 34.8814L125.035 34.7524C124.958 34.9244 124.864 35.0878 124.744 35.2513C124.624 35.4147 124.478 35.5524 124.315 35.6728C124.151 35.8019 123.963 35.8965 123.748 35.9739C123.534 36.0513 123.285 36.0857 123.019 36.0857C122.727 36.0857 122.444 36.0255 122.177 35.8965C121.912 35.7674 121.671 35.5954 121.465 35.3717C121.259 35.1567 121.096 34.8986 120.976 34.5975C120.847 34.2964 120.787 33.9782 120.787 33.6341C120.787 33.29 120.847 32.9717 120.976 32.6706C121.096 32.3695 121.259 32.1114 121.465 31.8878C121.671 31.6727 121.912 31.5007 122.177 31.3717C122.444 31.2427 122.727 31.1824 123.019 31.1824C123.268 31.1824 123.49 31.2169 123.688 31.2857C123.886 31.3545 124.066 31.4405 124.221 31.5523C124.367 31.6642 124.495 31.7932 124.606 31.9395C124.718 32.0856 124.804 32.2405 124.864 32.3867L125.765 32.2577C125.688 32.0255 125.576 31.7932 125.422 31.5609C125.267 31.3373 125.079 31.1394 124.847 30.9588C124.615 30.7782 124.341 30.6405 124.04 30.5286C123.74 30.4168 123.397 30.3652 123.019 30.3652C122.598 30.3652 122.203 30.4513 121.826 30.6233C121.448 30.7953 121.113 31.0276 120.83 31.32C120.538 31.6211 120.307 31.9653 120.143 32.361C119.971 32.7567 119.886 33.1781 119.886 33.6341C119.886 34.09 119.971 34.5115 120.143 34.9072C120.307 35.3029 120.538 35.647 120.83 35.9395C121.113 36.2406 121.448 36.4729 121.826 36.6448C122.203 36.8169 122.598 36.9029 123.019 36.9029Z" fill="white"/>
<path d="M130.962 31.6987V35.5697C130.61 35.5611 130.293 35.5008 130.018 35.3977C129.735 35.303 129.503 35.1654 129.314 34.9933C129.125 34.8213 128.979 34.6148 128.885 34.3826C128.782 34.1503 128.73 33.9008 128.73 33.6342C128.73 33.3675 128.782 33.118 128.885 32.8858C128.979 32.6535 129.125 32.4556 129.314 32.2836C129.503 32.1116 129.735 31.9739 130.018 31.8707C130.293 31.7675 130.61 31.7073 130.962 31.6987ZM131.864 35.5697V31.6987C132.215 31.7073 132.532 31.7675 132.816 31.8707C133.091 31.9739 133.323 32.1116 133.511 32.2836C133.7 32.4556 133.846 32.6535 133.949 32.8858C134.043 33.118 134.095 33.3675 134.095 33.6342C134.095 33.9008 134.043 34.1503 133.949 34.3826C133.846 34.6148 133.7 34.8213 133.511 34.9933C133.323 35.1654 133.091 35.303 132.816 35.3977C132.532 35.5008 132.215 35.5611 131.864 35.5697ZM131.864 36.989V36.3869C132.335 36.3783 132.764 36.2922 133.151 36.1374C133.537 35.9912 133.863 35.7847 134.138 35.5353C134.413 35.2858 134.627 35.0019 134.773 34.6751C134.919 34.3482 134.996 34.0041 134.996 33.6342C134.996 33.2643 134.919 32.9201 134.773 32.5933C134.627 32.2664 134.413 31.9739 134.138 31.7245C133.863 31.475 133.537 31.2771 133.151 31.1223C132.764 30.9761 132.335 30.8901 131.864 30.8814V30.2793H130.962V30.8814C130.49 30.8901 130.061 30.9761 129.674 31.1223C129.289 31.2771 128.962 31.475 128.688 31.7245C128.413 31.9739 128.199 32.2664 128.053 32.5933C127.906 32.9201 127.83 33.2643 127.83 33.6342C127.83 34.0041 127.906 34.3482 128.053 34.6751C128.199 35.0019 128.413 35.2858 128.688 35.5353C128.962 35.7847 129.289 35.9912 129.674 36.1374C130.061 36.2922 130.49 36.3783 130.962 36.3869V36.989H131.864Z" fill="white"/>
<path d="M143.399 33.6341C143.399 33.1781 143.313 32.7567 143.142 32.361C142.97 31.9653 142.738 31.6211 142.447 31.32C142.155 31.0276 141.812 30.7953 141.425 30.6233C141.039 30.4513 140.618 30.3652 140.181 30.3652C139.743 30.3652 139.323 30.4513 138.936 30.6233C138.55 30.7953 138.207 31.0276 137.915 31.32C137.623 31.6211 137.391 31.9653 137.219 32.361C137.048 32.7567 136.962 33.1781 136.962 33.6341C136.962 34.09 137.048 34.5115 137.219 34.9072C137.391 35.3029 137.623 35.647 137.915 35.9395C138.207 36.2406 138.55 36.4729 138.936 36.6448C139.323 36.8169 139.743 36.9029 140.181 36.9029C140.618 36.9029 141.039 36.8169 141.425 36.6448C141.812 36.4729 142.155 36.2406 142.447 35.9395C142.738 35.647 142.97 35.3029 143.142 34.9072C143.313 34.5115 143.399 34.09 143.399 33.6341ZM137.864 33.6341C137.864 33.29 137.924 32.9717 138.052 32.6706C138.181 32.3695 138.344 32.1114 138.558 31.8878C138.773 31.6727 139.013 31.5007 139.297 31.3717C139.58 31.2427 139.872 31.1824 140.181 31.1824C140.49 31.1824 140.782 31.2427 141.065 31.3717C141.348 31.5007 141.588 31.6727 141.803 31.8878C142.017 32.1114 142.181 32.3695 142.309 32.6706C142.438 32.9717 142.498 33.29 142.498 33.6341C142.498 33.9782 142.438 34.2964 142.309 34.5975C142.181 34.8986 142.017 35.1567 141.803 35.3717C141.588 35.5954 141.348 35.7674 141.065 35.8965C140.782 36.0255 140.49 36.0857 140.181 36.0857C139.872 36.0857 139.58 36.0255 139.297 35.8965C139.013 35.7674 138.773 35.5954 138.558 35.3717C138.344 35.1567 138.181 34.8986 138.052 34.5975C137.924 34.2964 137.864 33.9782 137.864 33.6341Z" fill="white"/>
<path d="M150.742 32.8166C150.742 32.5155 150.682 32.2316 150.57 31.965C150.45 31.6983 150.287 31.466 150.073 31.2682C149.858 31.0703 149.609 30.9069 149.317 30.795C149.017 30.6832 148.69 30.623 148.339 30.623H145.721V36.6446H146.622V35.0102H148.339C148.69 35.0102 149.017 34.9499 149.317 34.8381C149.609 34.7263 149.858 34.5628 150.073 34.365C150.287 34.1671 150.45 33.9349 150.57 33.6682C150.682 33.4015 150.742 33.1176 150.742 32.8166ZM149.841 32.8166C149.841 33.2295 149.712 33.565 149.446 33.8144C149.18 34.0639 148.811 34.193 148.339 34.193H146.622V31.4402H148.339C148.811 31.4402 149.18 31.5693 149.446 31.8187C149.712 32.0682 149.841 32.4037 149.841 32.8166Z" fill="white"/>
<path d="M156.19 34.537L158.292 31.9133H158.378V36.6446H159.279V30.623H158.292L156.19 33.2467L154.086 30.623H153.1V36.6446H154.001V31.9133H154.086L156.19 34.537Z" fill="white"/>
<path d="M162.949 34.408L163.661 31.4402H164.906L165.609 34.408H162.949ZM162.932 30.623L161.472 36.6446H162.417L162.751 35.2253H165.807L166.151 36.6446H167.095L165.636 30.623H162.932Z" fill="white"/>
<path d="M169.29 36.6446H173.754V37.6769H174.655V35.8274H173.969V30.623H173.067V35.8274H170.192V30.623H169.29V36.6446Z" fill="white"/>
<path d="M180.657 30.623L177.739 35.1392H177.653V30.623H176.751V36.6446H177.739L180.657 32.1284H180.743V36.6446H181.644V30.623H180.657Z" fill="white"/>
<path d="M188.172 30.623L185.253 35.1392H185.167V30.623H184.267V36.6446H185.253L188.172 32.1284H188.257V36.6446H189.159V30.623H188.172Z" fill="white"/>
<path d="M44.254 13.7448C43.7186 13.7347 43.1885 13.8389 42.6947 14.0493C42.4379 14.1587 42.2881 14.4339 42.2881 14.7267V29.9147C42.2881 29.981 42.2374 30.0346 42.1748 30.0346C42.1121 30.0346 42.0613 29.981 42.0613 29.9147V20.8906C42.0613 20.8019 41.9933 20.7323 41.9101 20.7433C41.8758 20.7479 41.8415 20.7524 41.8071 20.7548C41.7805 20.7567 41.7589 20.7338 41.7589 20.7055C41.7589 20.6756 41.7346 20.6521 41.7064 20.6547C40.9045 20.7299 40.268 20.8934 40.029 21.3155C39.9813 21.3997 39.9342 21.4857 39.891 21.5726C39.8408 21.6737 39.8154 21.7873 39.8183 21.9031V30.3279C39.8183 30.4605 39.7168 30.5679 39.5915 30.5679H39.4907C39.421 30.5679 39.3647 30.6275 39.3647 30.7012C39.3647 30.7748 39.3082 30.8345 39.2386 30.8345H39.1378C39.0126 30.8345 38.911 30.942 38.911 31.0744V32.2609C38.911 32.3124 38.8715 32.3542 38.8228 32.3542C38.7741 32.3542 38.7346 32.396 38.7346 32.4475V32.7674C38.7346 32.7895 38.7177 32.8074 38.6968 32.8074C38.6759 32.8074 38.659 32.8253 38.659 32.8474V34.0205C38.659 34.1457 38.5631 34.2471 38.4447 34.2471C38.3264 34.2471 38.2306 34.1457 38.2306 34.0205V30.9566C38.2306 30.9287 38.2263 30.901 38.2179 30.8745L38.2165 30.8698C38.2091 30.8464 38.2053 30.8219 38.2053 30.7973V30.6091C38.2053 30.5864 38.1879 30.5679 38.1663 30.5679C38.1458 30.5679 38.1287 30.551 38.1274 30.5292L38.1045 30.1413L38.0873 29.9227C38.0822 29.8584 38.1297 29.8059 38.1297 29.7414C38.1297 29.7201 38.1217 29.6998 38.1075 29.6848C38.0934 29.6698 38.0741 29.6614 38.0541 29.6614C38.034 29.6614 38.0148 29.6698 38.0007 29.6848C37.9865 29.6998 37.9785 29.7201 37.9785 29.7414C37.9785 29.8038 38.0261 29.8572 38.0212 29.9194L38.0037 30.1413L37.9808 30.5292C37.9795 30.551 37.9624 30.5679 37.9419 30.5679C37.9204 30.5679 37.9029 30.5864 37.9029 30.6091V30.6212C37.9029 30.6507 37.8803 30.6745 37.8525 30.6745H37.7047C37.6611 30.6745 37.6256 30.6371 37.6256 30.5908C37.6256 30.5602 37.6099 30.5321 37.5845 30.5174L37.3944 30.4078C37.3642 30.3904 37.3304 30.3813 37.2961 30.3813C37.2642 30.3813 37.2327 30.3891 37.2043 30.4042L36.9882 30.5184C36.9618 30.5324 36.9452 30.5609 36.9452 30.5921C36.9452 30.6377 36.9103 30.6745 36.8673 30.6745H36.7184C36.6905 30.6745 36.6679 30.6507 36.6679 30.6212V30.6091C36.6679 30.5864 36.6505 30.5679 36.629 30.5679C36.6084 30.5679 36.5913 30.551 36.5901 30.5292L36.5671 30.1413L36.55 29.9227C36.5448 29.8584 36.5923 29.8059 36.5923 29.7414C36.5923 29.7201 36.5844 29.6998 36.5702 29.6848C36.5561 29.6698 36.5368 29.6614 36.5167 29.6614C36.4967 29.6614 36.4774 29.6698 36.4633 29.6848C36.4491 29.6998 36.4411 29.7201 36.4411 29.7414C36.4411 29.8038 36.4887 29.8572 36.4838 29.9194L36.4664 30.1413L36.4419 30.5542C36.4415 30.5616 36.4471 30.5679 36.4541 30.5679C36.4609 30.5679 36.4664 30.5736 36.4664 30.5808V30.7973C36.4664 30.8219 36.4626 30.8464 36.4552 30.8698L36.4538 30.8745C36.4454 30.901 36.4411 30.9287 36.4411 30.9566V32.0609C36.4411 32.1787 36.3509 32.2742 36.2395 32.2742C36.1281 32.2742 36.0379 32.1787 36.0379 32.0609V28.8216C36.0379 28.8142 36.0435 28.8083 36.0505 28.8083C36.0574 28.8083 36.0631 28.8023 36.0631 28.7949V28.3842C36.0631 28.3534 36.0395 28.3283 36.0103 28.3283C35.9831 28.3283 35.9603 28.3065 35.9578 28.2778L35.9119 27.7685L35.8953 27.5065C35.8898 27.4189 35.9623 27.3497 35.9623 27.2619C35.9623 27.2336 35.9517 27.2065 35.9327 27.1865C35.9138 27.1665 35.8882 27.1553 35.8615 27.1553C35.8347 27.1553 35.8091 27.1665 35.7902 27.1865C35.7713 27.2065 35.7606 27.2336 35.7606 27.2619C35.7606 27.3481 35.8327 27.4245 35.8273 27.5106L35.8111 27.7685L35.7652 28.2778C35.7626 28.3065 35.7398 28.3283 35.7126 28.3283C35.6835 28.3283 35.6599 28.3534 35.6599 28.3842V28.5017C35.6599 28.5974 35.5865 28.675 35.4961 28.675H35.4078C35.3243 28.675 35.2566 28.6034 35.2566 28.515V28.4884C35.2566 28.4147 35.2002 28.355 35.1306 28.355C35.061 28.355 35.0046 28.2953 35.0046 28.2217V25.7298C35.0046 25.722 34.9985 25.7156 34.9911 25.7156C34.9844 25.7156 34.9786 25.7104 34.9777 25.7033L34.9561 25.5431C34.9548 25.5337 34.9541 25.5242 34.9541 25.5147V25.4145C34.9541 25.4024 34.9587 25.3909 34.9668 25.3823C34.9749 25.3738 34.9808 25.3609 34.9733 25.3517L34.972 25.3501L34.9706 25.3488C34.9618 25.3409 34.9496 25.3472 34.9416 25.3557L34.9384 25.359C34.9324 25.3654 34.9281 25.3773 34.9296 25.3862C34.9326 25.4047 34.9541 25.4109 34.9541 25.4296V25.5201C34.9541 25.526 34.9538 25.5318 34.953 25.5377L34.9306 25.7033C34.9296 25.7104 34.924 25.7156 34.9173 25.7156C34.9098 25.7156 34.9038 25.722 34.9038 25.7298V25.7822C34.9038 25.8043 34.8868 25.8223 34.866 25.8223C34.8451 25.8223 34.8282 25.8043 34.8282 25.7822V25.7689C34.8282 25.7395 34.8056 25.7156 34.7778 25.7156H34.7399C34.719 25.7156 34.7021 25.6977 34.7021 25.6756C34.7021 25.6535 34.6852 25.6356 34.6643 25.6356H34.613C34.5653 25.6356 34.526 25.5926 34.5438 25.5458C34.5481 25.5346 34.5513 25.5227 34.5513 25.5106C34.5514 25.4438 34.5368 25.3779 34.5085 25.3181C34.4841 25.2665 34.4503 25.2209 34.4091 25.1837C34.3883 25.165 34.3745 25.1385 34.3745 25.1097V25.0634C34.3745 25.0407 34.3572 25.0224 34.3358 25.0224C34.3151 25.0224 34.2981 25.0052 34.2971 24.9834L34.2233 23.3428L34.1744 22.489C34.1737 22.4775 34.1852 22.4694 34.195 22.4746L34.1994 22.477C34.2132 22.4843 34.2258 22.4656 34.215 22.4542C34.2076 22.4463 34.2111 22.4327 34.2209 22.4288C34.2603 22.4132 34.2943 22.3848 34.3179 22.3474C34.3292 22.3296 34.3377 22.31 34.3434 22.2898C34.3602 22.2296 34.358 22.1622 34.3367 22.1036C34.3322 22.0912 34.3265 22.0791 34.3197 22.0676L34.3153 22.0605C34.309 22.0509 34.2991 22.0631 34.3041 22.0737C34.322 22.1115 34.3289 22.1542 34.3241 22.1963C34.3197 22.254 34.2977 22.3087 34.2612 22.352C34.2494 22.3662 34.2362 22.3788 34.222 22.3898C34.1633 22.4353 34.0807 22.4407 34.0201 22.3983C34.0043 22.3871 33.9897 22.3738 33.9768 22.3585C33.9394 22.3139 33.9193 22.256 33.9208 22.1963C33.9208 22.1549 33.93 22.1141 33.9474 22.0771C33.9535 22.0643 33.9419 22.0513 33.9344 22.0631L33.9297 22.0706C33.9075 22.1083 33.8957 22.1519 33.8957 22.1963C33.8965 22.2474 33.9111 22.2973 33.9379 22.3398C33.9609 22.3763 33.9921 22.4061 34.0284 22.4268C34.0371 22.4317 34.0393 22.4443 34.0323 22.4516C34.0211 22.4635 34.0343 22.4829 34.0485 22.4754C34.0583 22.4702 34.0712 22.4775 34.0706 22.489L34.0217 23.3428L33.9478 24.9834C33.9468 25.0052 33.9298 25.0224 33.9091 25.0224C33.8878 25.0224 33.8705 25.0407 33.8705 25.0634V25.1113C33.8705 25.1393 33.8577 25.1652 33.8381 25.184C33.798 25.2226 33.7649 25.2688 33.7406 25.3203C33.71 25.3851 33.694 25.4565 33.694 25.529C33.694 25.5822 33.694 25.6356 33.7193 25.6356H33.5806C33.5598 25.6356 33.5428 25.6535 33.5428 25.6756C33.5428 25.6977 33.5259 25.7156 33.505 25.7156H33.4672C33.4394 25.7156 33.4168 25.7395 33.4168 25.7689V25.7822C33.4168 25.8043 33.3999 25.8223 33.379 25.8223C33.3581 25.8223 33.3412 25.8043 33.3412 25.7822V25.7298C33.3412 25.722 33.3351 25.7156 33.3277 25.7156C33.321 25.7156 33.3153 25.7104 33.3143 25.7033L33.2927 25.5431C33.2914 25.5337 33.2908 25.5242 33.2908 25.5147V25.4145C33.2908 25.4024 33.2953 25.3909 33.3034 25.3823C33.3115 25.3738 33.3173 25.3609 33.3099 25.3517L33.3086 25.3501C33.3039 25.3452 33.2975 25.3423 33.2908 25.3423C33.2761 25.3445 33.2622 25.3505 33.2504 25.3598C33.2436 25.3652 33.2396 25.3773 33.241 25.3862C33.244 25.4047 33.2656 25.4109 33.2656 25.4297V25.5201C33.2656 25.526 33.2652 25.5318 33.2644 25.5377L33.242 25.7033C33.2411 25.7104 33.2354 25.7156 33.2287 25.7156C33.2212 25.7156 33.2152 25.722 33.2152 25.7298V28.235C33.2152 28.316 33.1532 28.3817 33.0766 28.3817C33 28.3817 32.9379 28.4473 32.9379 28.5283V28.5416C32.9379 28.63 32.8703 28.7016 32.7867 28.7016H32.6985C32.6081 28.7016 32.5347 28.624 32.5347 28.5283V28.4109C32.5347 28.38 32.5111 28.355 32.4819 28.355C32.4547 28.355 32.4319 28.3331 32.4293 28.3045L32.3835 27.7952L32.367 27.5331C32.3614 27.4455 32.4339 27.3764 32.4339 27.2886C32.4339 27.2603 32.4232 27.2331 32.4044 27.2132C32.3855 27.1932 32.3598 27.182 32.3331 27.182C32.3063 27.182 32.2807 27.1932 32.2618 27.2132C32.2429 27.2331 32.2323 27.2603 32.2323 27.2886C32.2323 27.3748 32.3044 27.4512 32.2989 27.5373L32.2827 27.7952L32.2346 28.3298C32.2333 28.3441 32.2219 28.355 32.2083 28.355C32.1937 28.355 32.1819 28.3676 32.1819 28.3829V28.8216C32.1819 28.8289 32.1875 28.8349 32.1945 28.8349C32.2014 28.8349 32.2071 28.8409 32.2071 28.8482V31.8476C32.2071 32.0979 32.0153 32.3008 31.7787 32.3008C31.542 32.3008 31.3502 32.0979 31.3502 31.8476V30.9833C31.3502 30.9554 31.3459 30.9276 31.3376 30.9011L31.3361 30.8965C31.3287 30.8731 31.3249 30.8486 31.3249 30.8239V30.6358C31.3249 30.613 31.3075 30.5945 31.286 30.5945C31.2654 30.5945 31.2484 30.5776 31.2471 30.5558L31.2242 30.168L31.207 29.9493C31.2019 29.8851 31.2493 29.8325 31.2493 29.7681C31.2493 29.7469 31.2414 29.7265 31.2273 29.7115C31.2131 29.6965 31.1938 29.6881 31.1737 29.6881C31.1537 29.6881 31.1345 29.6965 31.1203 29.7115C31.1061 29.7265 31.0981 29.7469 31.0981 29.7681C31.0981 29.8304 31.1458 29.8839 31.1409 29.9461L31.1234 30.168L31.1005 30.5558C31.0992 30.5776 31.0821 30.5945 31.0616 30.5945C31.04 30.5945 31.0225 30.613 31.0225 30.6358V30.6479C31.0225 30.6773 31 30.7012 30.9722 30.7012H30.8402C30.7878 30.7012 30.7453 30.6562 30.7453 30.6008C30.7453 30.5641 30.7264 30.5302 30.6959 30.5127L30.4902 30.394C30.4757 30.3857 30.4594 30.3813 30.4429 30.3813C30.4263 30.3813 30.4101 30.3857 30.3956 30.394L30.1817 30.5174C30.1562 30.5321 30.1404 30.5602 30.1404 30.5908C30.1404 30.6371 30.1051 30.6745 30.0613 30.6745H29.9136C29.8858 30.6745 29.8632 30.6507 29.8632 30.6212V30.6091C29.8632 30.5864 29.8458 30.5679 29.8243 30.5679C29.8036 30.5679 29.7866 30.551 29.7853 30.5292L29.7624 30.1413L29.7452 29.9227C29.7402 29.8584 29.7876 29.8059 29.7876 29.7414C29.7876 29.7201 29.7796 29.6998 29.7655 29.6848C29.7513 29.6698 29.7321 29.6614 29.712 29.6614C29.692 29.6614 29.6728 29.6698 29.6585 29.6848C29.6443 29.6998 29.6364 29.7201 29.6364 29.7414C29.6364 29.8038 29.684 29.8572 29.6791 29.9194L29.6616 30.1413L29.6387 30.5292C29.6374 30.551 29.6204 30.5679 29.5998 30.5679C29.5782 30.5679 29.5608 30.5864 29.5608 30.6091V30.7973C29.5608 30.8219 29.5571 30.8464 29.5497 30.8698L29.5482 30.8745C29.5399 30.901 29.5356 30.9287 29.5356 30.9566V35.4295C29.5356 35.4833 29.4944 35.5268 29.4436 35.5268C29.4075 35.5268 29.3748 35.5491 29.3599 35.5838L29.2711 35.7906C29.2651 35.8044 29.2747 35.8201 29.289 35.8201C29.2999 35.8201 29.3087 35.8294 29.3087 35.841V36.2333C29.3087 36.3143 29.2467 36.38 29.1701 36.38H29.1051C29.0645 36.38 29.0315 36.4148 29.0315 36.4578C29.0315 36.4764 29.0252 36.4944 29.0138 36.5085L28.7653 36.8152C28.7423 36.8436 28.7088 36.8599 28.6735 36.8599C28.6068 36.8599 28.5527 36.9171 28.5527 36.9877V37.4464C28.5527 37.4759 28.5301 37.4997 28.5022 37.4997C28.4744 37.4997 28.4519 37.5236 28.4519 37.5531V37.6464C28.4519 37.6832 28.4236 37.713 28.3889 37.713C28.354 37.713 28.3259 37.7428 28.3259 37.7797V38.3396C28.3259 38.4648 28.23 38.5662 28.1116 38.5662H27.9856C27.9369 38.5662 27.8974 38.608 27.8974 38.6595V38.7128C27.8974 38.7349 27.9144 38.7528 27.9352 38.7528C27.9561 38.7528 27.973 38.7707 27.973 38.7928V39.2426C27.973 39.4709 27.8234 39.6689 27.6133 39.7206C19.8722 41.6229 15.6835 43.047 10 45.6725C28.524 39.4071 51.1343 36.4066 79.0085 36.4066C81.1403 36.4066 83.0925 36.4277 85.1669 36.4701C85.5898 36.4787 85.9381 36.1174 85.9366 35.6693L85.914 28.675V28.515L85.7127 25.449V24.9024C85.7127 24.8068 85.7858 24.7292 85.8763 24.7292H85.8891C85.972 24.7292 86.0399 24.6575 86.0399 24.5692V24.5025C86.0399 24.4509 86.0007 24.4092 85.9517 24.4092C85.9034 24.4092 85.8635 24.3675 85.8635 24.3159V24.036C85.8635 24.0065 85.8861 23.9826 85.914 23.9826C85.9419 23.9826 85.9645 23.9588 85.9645 23.9293V23.7987C85.9645 23.7089 85.8959 23.6361 85.8107 23.6361C85.7278 23.6361 85.6599 23.5665 85.6569 23.4789L85.5861 21.2899V21.0366C85.5861 21.0292 85.5921 21.0232 85.5989 21.0232C85.6057 21.0232 85.6117 21.0173 85.6117 21.0099V20.7433C85.6117 20.7212 85.5944 20.7033 85.574 20.7033C85.5529 20.7033 85.5363 20.6854 85.5363 20.6633V20.4767C85.5363 20.4546 85.5529 20.4367 85.574 20.4367C85.5944 20.4367 85.6117 20.4188 85.6117 20.3967V20.1575C85.6117 20.1351 85.5944 20.1168 85.5733 20.1168C85.5521 20.1168 85.5356 20.0995 85.5348 20.0776L85.4647 18.1458C85.4624 18.0866 85.5069 18.0372 85.5635 18.0372C85.6177 18.0372 85.6622 17.9904 85.6622 17.9327V17.824C85.6622 17.7945 85.6848 17.7706 85.7127 17.7706C85.7406 17.7706 85.7632 17.7468 85.7632 17.7173V17.1441C85.7632 17.122 85.7459 17.1041 85.7248 17.1041C85.7044 17.1041 85.6871 17.0862 85.6871 17.0641V17.0108C85.6871 16.9887 85.6705 16.9708 85.6494 16.9708C85.6283 16.9708 85.6117 16.9529 85.6117 16.9308V16.4243C85.6117 16.4022 85.6283 16.3842 85.6494 16.3842C85.6705 16.3842 85.6871 16.3664 85.6871 16.3443V16.1176C85.6871 16.0587 85.6418 16.0109 85.5861 16.0109C85.531 16.0109 85.4858 15.9633 85.4858 15.9043V15.4378C85.4858 15.4157 85.5024 15.3978 85.5235 15.3978C85.5446 15.3978 85.5612 15.3799 85.5612 15.3578V15.1445C85.5612 15.1224 85.5446 15.1045 85.5235 15.1045C85.5024 15.1045 85.4858 15.0866 85.4858 15.0645V14.478C85.4858 14.4559 85.5024 14.438 85.5235 14.438C85.5446 14.438 85.5612 14.4201 85.5612 14.398V14.1847C85.5612 14.1626 85.5446 14.1447 85.5235 14.1447C85.5024 14.1447 85.4858 14.1268 85.4858 14.1047V13.5448C85.4858 13.4786 85.5363 13.4249 85.5989 13.4249C85.6614 13.4249 85.7127 13.3712 85.7127 13.3049V12.9717C85.7127 12.9422 85.7353 12.9183 85.7632 12.9183C85.7903 12.9183 85.813 12.8945 85.813 12.865V12.3851C85.813 12.3704 85.8017 12.3584 85.7881 12.3584C85.7738 12.3584 85.7632 12.3465 85.7632 12.3318V11.6519C85.7632 11.5562 85.6893 11.4786 85.5989 11.4786C85.5084 11.4786 85.4353 11.401 85.4353 11.3053V10.6921C85.4353 10.67 85.4519 10.6521 85.473 10.6521C85.4941 10.6521 85.5107 10.6342 85.5107 10.6121V10.5988C85.5107 10.5694 85.4881 10.5455 85.4602 10.5455H85.4353C85.3931 10.5455 85.3599 10.5097 85.3599 10.4655V9.22577C85.3599 9.20368 85.3765 9.18578 85.3976 9.18578C85.418 9.18578 85.4353 9.16787 85.4353 9.14578V9.13245C85.4353 9.103 85.4127 9.07913 85.3848 9.07913H85.3599C85.3177 9.07913 85.2838 9.04332 85.2838 8.99916V7.82606C85.2838 7.79662 85.3064 7.77274 85.3343 7.77274H85.3599C85.3735 7.77274 85.3848 7.76081 85.3848 7.74608C85.3848 7.73136 85.3735 7.71942 85.3599 7.71942H85.3215C85.2868 7.71942 85.2589 7.68958 85.2589 7.65276V6.83961C85.2589 6.82488 85.2702 6.81295 85.2838 6.81295C85.2981 6.81295 85.3094 6.80101 85.3094 6.78629V6.74629C85.3094 6.72421 85.2921 6.7063 85.2717 6.7063C85.2506 6.7063 85.2333 6.6884 85.2333 6.66631V5.87982C85.2333 5.86509 85.2446 5.85315 85.2589 5.85315C85.2725 5.85315 85.2838 5.84121 85.2838 5.82648V5.7865C85.2838 5.76441 85.2672 5.74651 85.2461 5.74651C85.225 5.74651 85.2084 5.7286 85.2084 5.70651V5.13331C85.2084 5.11858 85.2197 5.10664 85.2333 5.10664C85.2476 5.10664 85.2589 5.09471 85.2589 5.07998V5.05332C85.2589 5.02387 85.2363 5 85.2084 5C85.1805 5 85.1579 5.02387 85.1579 5.05332V5.07999C85.1579 5.09471 85.1692 5.10664 85.1835 5.10664C85.1971 5.10664 85.2084 5.11858 85.2084 5.13331V5.66653C85.2084 5.69598 85.1858 5.71985 85.1579 5.71985C85.13 5.71985 85.1074 5.74372 85.1074 5.77317V5.82649C85.1074 5.84121 85.1187 5.85315 85.133 5.85315C85.1466 5.85315 85.1579 5.86509 85.1579 5.87982V6.66631C85.1579 6.68839 85.1413 6.7063 85.1202 6.7063C85.0991 6.7063 85.0825 6.72421 85.0825 6.74629V6.78629C85.0825 6.80101 85.0938 6.81295 85.1074 6.81295C85.1217 6.81295 85.133 6.82489 85.133 6.83961V7.59945C85.133 7.63626 85.1044 7.6661 85.0697 7.6661H85.0569C85.029 7.6661 85.0071 7.68997 85.0071 7.71942C85.0071 7.74887 85.029 7.77274 85.0569 7.77274C85.0848 7.77274 85.1074 7.79662 85.1074 7.82607V8.97249C85.1074 9.01666 85.0735 9.05247 85.032 9.05247H85.0071C84.9792 9.05247 84.9566 9.07635 84.9566 9.10579V9.11912C84.9566 9.14121 84.9732 9.15912 84.9943 9.15912C85.0147 9.15912 85.032 9.17702 85.032 9.19911V10.4255C85.032 10.477 84.9928 10.5188 84.9438 10.5188H84.9061C84.8782 10.5188 84.8556 10.5427 84.8556 10.5721V10.5855C84.8556 10.6076 84.8722 10.6255 84.8933 10.6255C84.9144 10.6255 84.931 10.6434 84.931 10.6655V11.2787C84.931 11.3744 84.8579 11.452 84.7674 11.452C84.677 11.452 84.6039 11.5295 84.6039 11.6253V12.3051C84.6039 12.3198 84.5925 12.3318 84.5782 12.3318C84.5647 12.3318 84.5534 12.3437 84.5534 12.3584V12.8383C84.5534 12.8678 84.576 12.8917 84.6039 12.8917C84.631 12.8917 84.6536 12.9155 84.6536 12.9449V13.2783C84.6536 13.3445 84.7049 13.3982 84.7674 13.3982C84.83 13.3982 84.8805 13.4519 84.8805 13.5182V14.0781C84.8805 14.1002 84.8639 14.118 84.8428 14.118C84.8217 14.118 84.8051 14.136 84.8051 14.1581V14.3714C84.8051 14.3935 84.8217 14.4113 84.8428 14.4113C84.8639 14.4113 84.8805 14.4293 84.8805 14.4514V15.0379C84.8805 15.0599 84.8639 15.0779 84.8428 15.0779C84.8217 15.0779 84.8051 15.0957 84.8051 15.1178V15.3311C84.8051 15.3532 84.8217 15.3711 84.8428 15.3711C84.8639 15.3711 84.8805 15.389 84.8805 15.4111V15.891C84.8805 15.9425 84.8413 15.9843 84.7923 15.9843C84.7441 15.9843 84.7041 16.0261 84.7041 16.0776V16.3176C84.7041 16.3396 84.7214 16.3576 84.7418 16.3576C84.7629 16.3576 84.7803 16.3755 84.7803 16.3975V16.9041C84.7803 16.9262 84.7629 16.9441 84.7418 16.9441C84.7214 16.9441 84.7041 16.962 84.7041 16.9841V17.0241C84.7041 17.0536 84.6815 17.0774 84.6536 17.0774C84.6257 17.0774 84.6039 17.1013 84.6039 17.1308V17.6906C84.6039 17.7201 84.6257 17.744 84.6536 17.744C84.6815 17.744 84.7041 17.7678 84.7041 17.7973V17.9059C84.7041 17.9638 84.7486 18.0106 84.8029 18.0106C84.8594 18.0106 84.9039 18.0598 84.9024 18.1192L84.8315 20.0509C84.8307 20.0728 84.8142 20.0901 84.7931 20.0901C84.7719 20.0901 84.7546 20.1083 84.7546 20.1309V20.3701C84.7546 20.3921 84.7719 20.4101 84.7923 20.4101C84.8134 20.4101 84.83 20.4279 84.83 20.45V20.6366C84.83 20.6587 84.8134 20.6767 84.7923 20.6767C84.7719 20.6767 84.7546 20.6945 84.7546 20.7166V20.9833C84.7546 20.9906 84.7606 20.9966 84.7674 20.9966C84.7742 20.9966 84.7803 21.0026 84.7803 21.0099V21.2632L84.7094 23.4522C84.7064 23.5399 84.6385 23.6093 84.5556 23.6093C84.4704 23.6093 84.4018 23.6822 84.4018 23.7721V23.9026C84.4018 23.9321 84.4244 23.956 84.4523 23.956C84.4802 23.956 84.5028 23.9798 84.5028 24.0093V24.3293C84.5028 24.3734 84.4689 24.4092 84.4275 24.4092C84.3853 24.4092 84.3513 24.445 84.3513 24.4892V24.5692C84.3513 24.6575 84.4192 24.7292 84.5028 24.7292H84.5157C84.6061 24.7292 84.6792 24.8068 84.6792 24.9024V25.449L84.5782 28.515V28.675L84.53 30.3449C84.5292 30.3745 84.4991 30.3936 84.4719 30.3873C84.4486 30.3819 84.4297 30.4037 84.4327 30.4286L84.4689 30.755C84.4734 30.7973 84.4418 30.8345 84.4018 30.8345C84.3619 30.8345 84.3302 30.7973 84.3355 30.755L84.3551 30.5764C84.3634 30.4976 84.2752 30.4343 84.2006 30.4343C84.1252 30.4343 84.037 30.4976 84.0453 30.5764L84.0611 30.7153C84.0679 30.7788 84.0212 30.8345 83.9609 30.8345C83.9006 30.8345 83.8538 30.7788 83.8606 30.7153L83.8764 30.5764C83.8847 30.4976 83.7965 30.4343 83.7211 30.4343C83.6465 30.4343 83.5576 30.4976 83.5666 30.5764L83.5862 30.755C83.5915 30.7973 83.5598 30.8345 83.5199 30.8345C83.4799 30.8345 83.4483 30.7973 83.4528 30.755L83.4732 30.5764C83.4814 30.4976 83.3932 30.4343 83.3179 30.4343C83.2432 30.4343 83.155 30.4976 83.1633 30.5764L83.1837 30.755C83.1882 30.7973 83.1565 30.8345 83.1166 30.8345C83.0766 30.8345 83.045 30.7973 83.0495 30.755L83.0699 30.5764C83.0781 30.4976 82.99 30.4343 82.9146 30.4343C82.8399 30.4343 82.7518 30.4976 82.7601 30.5764L82.7781 30.7364C82.7842 30.7886 82.745 30.8345 82.6955 30.8345C82.6497 30.8345 82.6125 30.7951 82.6125 30.7467V29.8614C82.6125 29.854 82.6182 29.8481 82.6251 29.8481C82.6321 29.8481 82.6377 29.8421 82.6377 29.8347V29.728C82.6377 29.6618 82.587 29.6081 82.5243 29.6081H82.4697C82.3911 29.6081 82.323 29.5505 82.3058 29.4694L82.3007 29.4454C82.2545 29.2285 81.9624 29.2285 81.9162 29.4454L81.9013 29.5156C81.8898 29.5697 81.8444 29.6081 81.792 29.6081C81.7301 29.6081 81.68 29.6611 81.68 29.7266V29.8747C81.68 29.8894 81.6913 29.9013 81.7052 29.9013C81.7191 29.9013 81.7304 29.9133 81.7304 29.928V30.8643C81.7304 30.892 81.7092 30.9144 81.6829 30.9144C81.6546 30.9144 81.6325 30.8883 81.6358 30.8584L81.6583 30.6564C81.6671 30.5775 81.5787 30.5143 81.5036 30.5143C81.4285 30.5143 81.3401 30.5776 81.3488 30.6564L81.3688 30.835C81.3734 30.8774 81.3422 30.9144 81.302 30.9144C81.2617 30.9144 81.2305 30.8774 81.2352 30.835L81.2551 30.6564C81.2638 30.5776 81.1754 30.5143 81.1003 30.5143C81.0253 30.5143 80.9369 30.5776 80.9456 30.6564L80.964 30.8218C80.9695 30.8711 80.9331 30.9144 80.8861 30.9144C80.8392 30.9144 80.8027 30.8711 80.8082 30.8218L80.8266 30.6564C80.8354 30.5776 80.7469 30.5143 80.6719 30.5143C80.5968 30.5143 80.5084 30.5776 80.5172 30.6564L80.5356 30.8218C80.5411 30.8711 80.5047 30.9144 80.4577 30.9144C80.4107 30.9144 80.3743 30.8711 80.3797 30.8218L80.3982 30.6564C80.407 30.5776 80.3186 30.5143 80.2435 30.5143C80.1684 30.5143 80.08 30.5776 80.0887 30.6564L80.1086 30.835C80.1133 30.8774 80.0821 30.9144 80.0418 30.9144C80.0016 30.9144 79.9704 30.8774 79.975 30.835L79.9949 30.6564C80.0037 30.5775 79.9153 30.5143 79.8402 30.5143C79.7652 30.5143 79.6768 30.5776 79.6855 30.6564L79.7054 30.835C79.7101 30.8774 79.6789 30.9144 79.6386 30.9144C79.5984 30.9144 79.5671 30.8774 79.5718 30.835L79.5917 30.6564C79.6005 30.5776 79.5121 30.5143 79.437 30.5143C79.3619 30.5143 79.2735 30.5776 79.2823 30.6564L79.3021 30.835C79.3068 30.8774 79.2756 30.9144 79.2353 30.9144C79.1951 30.9144 79.1639 30.8774 79.1685 30.835L79.2037 30.5192C79.2071 30.4884 79.1843 30.466 79.1564 30.4758C79.1307 30.4848 79.1094 30.4646 79.1094 30.436V25.2623L79.0589 24.5159V24.4625C79.0589 24.4331 79.0815 24.4092 79.1094 24.4092C79.1372 24.4092 79.1597 24.3853 79.1597 24.3559V24.2359C79.1597 24.2138 79.1767 24.1959 79.1976 24.1959C79.2184 24.1959 79.2353 24.178 79.2353 24.1559V23.6821C79.2353 23.6566 79.2159 23.6361 79.1918 23.6361C79.1728 23.6361 79.1559 23.6228 79.1503 23.6035L79.0623 23.3011C79.0601 23.2933 79.0585 23.2854 79.0576 23.2774C79.0404 23.1208 78.8254 23.1208 78.8082 23.2774C78.8073 23.2854 78.8057 23.2933 78.8035 23.3011L78.7155 23.6035C78.7099 23.6228 78.693 23.6361 78.674 23.6361H78.6702C78.6483 23.6361 78.6305 23.6548 78.6305 23.678C78.6305 23.7085 78.6009 23.7288 78.5746 23.7164L78.4312 23.649C78.413 23.6404 78.3934 23.6361 78.3736 23.6361H78.3419C78.1811 23.6361 78.0508 23.4982 78.0508 23.3281V22.7829C78.0508 22.7387 78.017 22.7029 77.9752 22.7029C77.9334 22.7029 77.8996 22.6671 77.8996 22.6229V21.2128C77.8996 21.1965 77.8871 21.1832 77.8716 21.1832C77.8585 21.1832 77.8472 21.1736 77.8443 21.1601L77.7557 20.7381C77.7514 20.7177 77.7344 20.7033 77.7148 20.7033C77.6915 20.7033 77.6728 20.6834 77.6728 20.659V19.9835C77.6728 19.9687 77.6841 19.9568 77.698 19.9568C77.7119 19.9568 77.7232 19.9449 77.7232 19.9301V19.6502C77.7232 19.6281 77.7401 19.6102 77.761 19.6102C77.7818 19.6102 77.7988 19.5923 77.7988 19.5702V19.1703C77.7988 19.1482 77.7818 19.1303 77.761 19.1303C77.7401 19.1303 77.7232 19.1124 77.7232 19.0904V18.0604C77.7232 18.0476 77.733 18.0372 77.7451 18.0372C77.7595 18.0372 77.7699 18.0228 77.7662 18.0081L77.6728 17.6373L77.5641 17.3091C77.5236 17.1863 77.4141 17.1041 77.291 17.1041C77.1482 17.1041 77.0267 16.9938 77.005 16.8444L76.389 12.5959C76.3797 12.5322 76.4502 12.4905 76.4967 12.5321C76.5485 12.5785 76.6249 12.5217 76.601 12.4544L76.5638 12.3495C76.549 12.3076 76.5626 12.2603 76.5971 12.2343L76.6029 12.2299C76.6868 12.1665 76.6403 12.0266 76.5374 12.0327L76.5102 12.0342C76.4683 12.0367 76.4309 12.007 76.4212 11.9638C76.4003 11.8698 76.2738 11.8698 76.2528 11.9638C76.2432 12.007 76.2057 12.0367 76.1638 12.0342L76.1367 12.0327C76.0338 12.0266 75.9873 12.1665 76.0711 12.2299L76.077 12.2343C76.1115 12.2603 76.125 12.3076 76.1102 12.3495L76.073 12.4544C76.0492 12.5217 76.1255 12.5785 76.1774 12.5321C76.2239 12.4905 76.2943 12.5322 76.2852 12.5959L75.6669 16.8588C75.6465 16.9999 75.5317 17.1041 75.3968 17.1041C75.2806 17.1041 75.1772 17.1817 75.1388 17.2977L75.0265 17.6373L74.9331 18.0081C74.9293 18.0228 74.9398 18.0372 74.9542 18.0372C74.9663 18.0372 74.9761 18.0476 74.9761 18.0604V19.0904C74.9761 19.1124 74.9591 19.1303 74.9383 19.1303C74.9174 19.1303 74.9005 19.1482 74.9005 19.1703V19.5702C74.9005 19.5923 74.9174 19.6102 74.9383 19.6102C74.9591 19.6102 74.9761 19.6281 74.9761 19.6502V19.9301C74.9761 19.9449 74.9873 19.9568 75.0013 19.9568C75.0152 19.9568 75.0265 19.9687 75.0265 19.9835V20.7389C75.0265 20.7634 75.0077 20.7833 74.9846 20.7833C74.9649 20.7833 74.9478 20.7977 74.9436 20.818L74.8574 21.2285C74.8531 21.2487 74.836 21.2632 74.8164 21.2632C74.7932 21.2632 74.7745 21.2831 74.7745 21.3076V22.7295C74.7745 22.759 74.7519 22.7829 74.724 22.7829C74.6962 22.7829 74.6737 22.8067 74.6737 22.8362V23.5841C74.6737 23.6569 74.6178 23.716 74.5489 23.716C74.5314 23.716 74.5142 23.7199 74.4983 23.7274L74.3514 23.7964C74.3252 23.8088 74.2956 23.7884 74.2956 23.758C74.2956 23.7349 74.2779 23.716 74.2559 23.716H74.2521C74.233 23.716 74.2162 23.7028 74.2105 23.6835L74.1226 23.381C74.1203 23.3733 74.1187 23.3654 74.1179 23.3574C74.1006 23.2007 73.8857 23.2007 73.8685 23.3574C73.8676 23.3653 73.866 23.3733 73.8638 23.381L73.7758 23.6835C73.7702 23.7028 73.7534 23.716 73.7342 23.716C73.7102 23.716 73.6908 23.7366 73.6908 23.762V24.2359C73.6908 24.258 73.7077 24.2759 73.7286 24.2759C73.7494 24.2759 73.7664 24.2938 73.7664 24.3159V24.4359C73.7664 24.4653 73.7889 24.4892 73.8167 24.4892C73.8446 24.4892 73.8672 24.5131 73.8672 24.5425V24.5958L73.8167 25.3423V30.9176C73.8167 30.9453 73.7955 30.9678 73.7693 30.9678C73.7409 30.9678 73.7188 30.9416 73.7222 30.9117L73.7446 30.7097C73.7534 30.6309 73.665 30.5676 73.5899 30.5676C73.5149 30.5676 73.4264 30.6309 73.4352 30.7097L73.4551 30.8884C73.4598 30.9306 73.4285 30.9678 73.3883 30.9678C73.3481 30.9678 73.3168 30.9306 73.3216 30.8884L73.3414 30.7097C73.3501 30.6309 73.2617 30.5676 73.1867 30.5676C73.1116 30.5676 73.0232 30.6309 73.032 30.7097L73.0519 30.8884C73.0565 30.9306 73.0253 30.9678 72.9851 30.9678C72.9448 30.9678 72.9136 30.9306 72.9183 30.8884L72.9382 30.7097C72.9469 30.6309 72.8585 30.5676 72.7834 30.5676C72.7084 30.5676 72.62 30.6309 72.6288 30.7097L72.6486 30.8884C72.6533 30.9306 72.622 30.9678 72.5819 30.9678C72.5416 30.9678 72.5103 30.9306 72.5151 30.8884L72.5349 30.7097C72.5437 30.6309 72.4553 30.5676 72.3802 30.5676C72.3051 30.5676 72.2167 30.6309 72.2255 30.7097L72.2454 30.8884C72.25 30.9306 72.2188 30.9678 72.1786 30.9678C72.1383 30.9678 72.1071 30.9306 72.1118 30.8884L72.1317 30.7097C72.1404 30.6309 72.052 30.5676 71.9769 30.5676C71.9019 30.5676 71.8135 30.6309 71.8223 30.7097L71.8362 30.8354C71.844 30.9059 71.792 30.9678 71.7249 30.9678C71.6578 30.9678 71.6058 30.9059 71.6137 30.8354L71.6276 30.7097C71.6364 30.6309 71.5479 30.5676 71.4729 30.5676C71.3979 30.5676 71.3094 30.6309 71.3182 30.7097L71.3366 30.8751C71.3421 30.9245 71.3057 30.9678 71.2587 30.9678C71.2117 30.9678 71.1753 30.9245 71.1808 30.8751L71.1992 30.7097C71.208 30.6309 71.1196 30.5676 71.0445 30.5676C70.9694 30.5676 70.881 30.6309 70.8897 30.7097L70.9122 30.9117C70.9156 30.9416 70.8935 30.9678 70.8651 30.9678C70.8389 30.9678 70.8176 30.9453 70.8176 30.9176V29.968C70.8176 29.9606 70.8233 29.9547 70.8302 29.9547C70.8372 29.9547 70.8428 29.9487 70.8428 29.9414V29.808C70.8428 29.7271 70.7808 29.6614 70.7042 29.6614H70.6468C70.5551 29.6614 70.4757 29.5941 70.4555 29.4994C70.4094 29.2825 70.1171 29.2818 70.0709 29.4987L70.0585 29.5574C70.0455 29.6182 69.9945 29.6614 69.9356 29.6614C69.866 29.6614 69.8095 29.7211 69.8095 29.7947V29.928C69.8095 29.9428 69.8208 29.9547 69.8348 29.9547C69.8486 29.9547 69.8599 29.9666 69.8599 29.9814V30.9176C69.8599 30.9453 69.8387 30.9678 69.8125 30.9678C69.7841 30.9678 69.762 30.9416 69.7653 30.9117L69.7878 30.7097C69.7966 30.6309 69.7082 30.5676 69.6331 30.5676C69.558 30.5676 69.4696 30.6309 69.4784 30.7097L69.4983 30.8884C69.5029 30.9306 69.4717 30.9678 69.4315 30.9678C69.3912 30.9678 69.36 30.9306 69.3647 30.8884L69.3846 30.7097C69.3933 30.6309 69.3049 30.5676 69.2298 30.5676C69.1548 30.5676 69.0664 30.6309 69.0752 30.7097L69.0951 30.8884C69.0997 30.9306 69.0685 30.9678 69.0283 30.9678C68.988 30.9678 68.9567 30.9306 68.9615 30.8884L68.9813 30.7097C68.9901 30.6309 68.9017 30.5676 68.8266 30.5676C68.7515 30.5676 68.6631 30.6309 68.6719 30.7097L68.6873 30.8487C68.6944 30.9121 68.6476 30.9678 68.5872 30.9678C68.5268 30.9678 68.48 30.9121 68.487 30.8487L68.5025 30.7097C68.5112 30.6309 68.4228 30.5676 68.3477 30.5676C68.2727 30.5676 68.1843 30.6309 68.1931 30.7097L68.213 30.8884C68.2176 30.9306 68.1864 30.9678 68.1462 30.9678C68.1059 30.9678 68.0747 30.9306 68.0794 30.8884L68.0992 30.7097C68.108 30.6309 68.0196 30.5676 67.9445 30.5676C67.8694 30.5676 67.781 30.6309 67.7898 30.7097L67.8097 30.8884C67.8144 30.9306 67.7831 30.9678 67.7429 30.9678C67.7026 30.9678 67.6714 30.9306 67.6762 30.8884L67.696 30.7097C67.7047 30.6309 67.6163 30.5676 67.5413 30.5676C67.4662 30.5676 67.3778 30.6309 67.3866 30.7097L67.4065 30.8884C67.4111 30.9306 67.3799 30.9678 67.3397 30.9678C67.2994 30.9678 67.2682 30.9306 67.2729 30.8884L67.2928 30.7097C67.3015 30.6309 67.2131 30.5676 67.138 30.5676C67.063 30.5676 66.9745 30.6309 66.9833 30.7097L67.0032 30.8884C67.0079 30.9306 66.9766 30.9678 66.9364 30.9678C66.8962 30.9678 66.8649 30.9306 66.8697 30.8884L66.8895 30.7097C66.8983 30.6309 66.8099 30.5676 66.7348 30.5676C66.6597 30.5676 66.5713 30.6309 66.5801 30.7097L66.6 30.8884C66.6046 30.9306 66.5734 30.9678 66.5332 30.9678C66.4929 30.9678 66.4617 30.9306 66.4664 30.8884L66.4863 30.7097C66.495 30.6309 66.4066 30.5676 66.3315 30.5676C66.2565 30.5676 66.1681 30.6309 66.1769 30.7097L66.1967 30.8884C66.2014 30.9306 66.1702 30.9678 66.13 30.9678C66.0897 30.9678 66.0584 30.9306 66.0632 30.8884L66.083 30.7097C66.0918 30.6309 66.0033 30.5676 65.9283 30.5676C65.8532 30.5676 65.7648 30.6309 65.7736 30.7097L65.7883 30.8416C65.7957 30.9088 65.7461 30.9678 65.6822 30.9678C65.6233 30.9678 65.5755 30.9172 65.5755 30.8549V30.5546C65.5755 30.5177 65.5473 30.4879 65.5124 30.4879C65.4777 30.4879 65.4494 30.4581 65.4494 30.4212V30.1279C65.4494 30.1206 65.4551 30.1146 65.4621 30.1146C65.469 30.1146 65.4747 30.1087 65.4747 30.1013V29.888C65.4747 29.8659 65.4577 29.8481 65.4368 29.8481C65.416 29.8481 65.3991 29.8301 65.3991 29.808V29.754C65.3991 29.7457 65.398 29.7373 65.3959 29.7292L65.1797 28.8907C65.1759 28.8761 65.1864 28.8616 65.2008 28.8616C65.2129 28.8616 65.2226 28.8513 65.2226 28.8385V28.7816C65.2226 28.7669 65.2114 28.7549 65.1974 28.7549C65.1835 28.7549 65.1723 28.743 65.1723 28.7283V28.0884C65.1723 28.0737 65.1835 28.0617 65.1974 28.0617C65.2114 28.0617 65.2226 28.0498 65.2226 28.0351V28.0084C65.2226 27.979 65.2001 27.9551 65.1723 27.9551H65.1043C65.0544 27.9551 65.0098 27.9219 64.993 27.872L64.9703 27.805C64.9028 27.6048 64.6352 27.6048 64.5676 27.805L64.545 27.872C64.5282 27.9219 64.4836 27.9551 64.4336 27.9551H64.3658C64.3379 27.9551 64.3153 27.979 64.3153 28.0084V28.0351C64.3153 28.0498 64.3266 28.0617 64.3405 28.0617C64.3545 28.0617 64.3658 28.0737 64.3658 28.0884V28.7283C64.3658 28.743 64.3545 28.7549 64.3405 28.7549C64.3266 28.7549 64.3153 28.7669 64.3153 28.7816V28.8385C64.3153 28.8513 64.3251 28.8616 64.3372 28.8616C64.3516 28.8616 64.362 28.8761 64.3582 28.8907L64.142 29.7292C64.14 29.7373 64.1389 29.7457 64.1389 29.754V29.808C64.1389 29.8301 64.122 29.8481 64.1011 29.8481C64.0802 29.8481 64.0633 29.8659 64.0633 29.888V30.0213C64.0633 30.0287 64.069 30.0346 64.0759 30.0346C64.0829 30.0346 64.0885 30.0406 64.0885 30.048V30.3413C64.0885 30.3781 64.0603 30.4079 64.0255 30.4079C63.9907 30.4079 63.9625 30.4377 63.9625 30.4746V32.2475C63.9625 32.3506 63.8835 32.4342 63.7861 32.4342H63.66C63.6322 32.4342 63.6097 32.458 63.6097 32.4874C63.6097 32.5169 63.5871 32.5408 63.5593 32.5408H63.5214C63.4727 32.5408 63.4332 32.499 63.4332 32.4475V32.3275C63.4332 32.2539 63.3768 32.1942 63.3073 32.1942C63.2376 32.1942 63.1812 32.2539 63.1812 32.3275V32.5541C63.1812 32.6499 63.1079 32.7275 63.0174 32.7275C62.9269 32.7275 62.8535 32.8051 62.8535 32.9007V33.4872C62.8535 33.6124 62.7577 33.7139 62.6393 33.7139C62.521 33.7139 62.4252 33.6124 62.4252 33.4872V32.5008C62.4252 32.2579 62.239 32.0609 62.0093 32.0609H61.7573C61.6668 32.0609 61.5934 32.1385 61.5934 32.2342V32.2875C61.5934 32.3538 61.5427 32.4075 61.48 32.4075C61.4174 32.4075 61.3666 32.3538 61.3666 32.2875C61.3666 32.2213 61.3159 32.1675 61.2532 32.1675H60.8878C60.6233 32.1675 60.4089 31.9407 60.4089 31.661V30.7864C60.4089 30.6657 60.3165 30.5679 60.2023 30.5679C60.0922 30.5679 60.0014 30.4764 59.996 30.3601L59.48 19.2083C59.478 19.1646 59.4439 19.1303 59.4026 19.1303H59.3504C59.3365 19.1303 59.3252 19.1184 59.3252 19.1037C59.3252 19.0889 59.3139 19.077 59.3 19.077H59.237C59.1882 19.077 59.1487 19.0353 59.1487 18.9837V18.9437C59.1487 18.8701 59.0924 18.8104 59.0228 18.8104H58.864C58.7233 18.8104 58.6042 18.7017 58.5804 18.5551C58.4922 18.014 58.4016 17.6906 58.2919 17.6906C58.1995 17.6906 58.1327 17.7973 58.0403 17.7973H55.8971C55.8071 17.7973 55.7356 17.6906 55.6456 17.6906C55.3432 17.6906 55.1163 20.1434 55.1163 23.1562C55.1163 23.9203 55.1353 24.6443 55.1569 25.3106C55.1621 25.4712 55.0366 25.6024 54.8848 25.5948C54.7464 25.5877 54.6375 25.467 54.6375 25.3204V23.6361C54.6375 23.6066 54.6601 23.5827 54.6879 23.5827C54.7158 23.5827 54.7383 23.5589 54.7383 23.5294V19.9035C54.7383 19.8741 54.7158 19.8501 54.6879 19.8501C54.6601 19.8501 54.6375 19.8263 54.6375 19.7969V17.2108C54.6375 17.1812 54.6601 17.1574 54.6879 17.1574C54.7158 17.1574 54.7383 17.1336 54.7383 17.1041V14.0781C54.7383 13.894 54.5973 13.7448 54.4233 13.7448H54.2847C54.1872 13.7448 54.1083 13.6613 54.1083 13.5582C54.1083 13.4551 54.0293 13.3716 53.9318 13.3716H53.1757C53.0783 13.3716 52.9993 13.4551 52.9993 13.5582V13.6381C52.9993 13.6971 52.9542 13.7448 52.8985 13.7448C52.8429 13.7448 52.7977 13.7925 52.7977 13.8515V25.2757C52.7977 25.3496 52.7592 25.4173 52.6976 25.4521C52.5717 25.5232 52.4197 25.4267 52.4197 25.2757V24.7558C52.4197 24.7264 52.4422 24.7024 52.47 24.7024C52.4979 24.7024 52.5205 24.6786 52.5205 24.6492V20.77C52.5205 20.7037 52.4697 20.65 52.4071 20.65C52.3444 20.65 52.2936 20.5963 52.2936 20.53V17.2507C52.2936 17.2286 52.3106 17.2108 52.3315 17.2108C52.3524 17.2108 52.3692 17.1928 52.3692 17.1707V13.2116C52.3692 13.0349 52.2339 12.8917 52.0668 12.8917H51.966C51.8546 12.8917 51.7644 12.7962 51.7644 12.6784C51.7644 12.5606 51.6741 12.4651 51.5627 12.4651H50.7059C50.5945 12.4651 50.5043 12.5606 50.5043 12.6784V12.745C50.5043 12.826 50.4422 12.8917 50.3656 12.8917C50.2891 12.8917 50.227 12.9573 50.227 13.0383V17.0907C50.227 17.1423 50.1875 17.184 50.1388 17.184C50.0901 17.184 50.0506 17.2258 50.0506 17.2774V20.9833C50.0506 21.02 50.0788 21.0499 50.1136 21.0499C50.1484 21.0499 50.1766 21.0798 50.1766 21.1166V24.4403C50.1766 24.4872 50.1534 24.5306 50.1154 24.5547C50.0315 24.608 49.9246 24.544 49.9246 24.4403V22.0769C49.9246 21.6301 49.5711 21.2605 49.1677 21.3924C48.8523 21.4955 48.5556 21.6581 48.2927 21.874C48.1528 21.9889 48.0735 22.1638 48.056 22.3503C47.8469 24.5903 47.7705 28.7469 47.7588 29.4519C47.7578 29.5106 47.7126 29.5548 47.6571 29.5548C47.601 29.5548 47.5555 29.5067 47.5555 29.4473V25.6686C47.5555 25.5938 47.5577 25.5352 47.5118 25.4783C47.4275 25.3736 47.348 25.2386 47.2822 25.12C47.2315 25.0285 47.1569 24.9406 47.0573 24.8561C46.8295 24.6628 46.6482 24.3986 46.6482 24.0898V14.9446C46.6482 14.8856 46.6031 14.8379 46.5475 14.8379C46.4917 14.8379 46.4466 14.7902 46.4466 14.7312V14.5713C46.4466 14.5419 46.4241 14.5179 46.3962 14.5179C46.3683 14.5179 46.3458 14.4941 46.3458 14.4647V14.3364C46.3458 14.2679 46.3096 14.2045 46.2501 14.1774C46.1748 14.143 46.0973 14.1143 46.0181 14.0914C45.4507 13.8797 44.8555 13.7628 44.254 13.7448Z" fill="white"/>
</svg>
